<svg xmlns="http://www.w3.org/2000/svg" viewBox="0 0 200 200" width="200" height="200" shape-rendering="crispEdges">
  <defs>
    <linearGradient id="ring" x1="0%" y1="0%" x2="100%" y2="100%">
      <stop offset="0%"   stop-color="#5AA612"/>
      <stop offset="48%"  stop-color="#4FC3F7"/>
      <stop offset="100%" stop-color="#FF6B9D"/>
    </linearGradient>
    <radialGradient id="bg" cx="45%" cy="38%" r="68%">
      <stop offset="0%"   stop-color="#1b2340"/>
      <stop offset="100%" stop-color="#070910"/>
    </radialGradient>
    <filter id="sglow" x="-150%" y="-150%" width="400%" height="400%">
      <feGaussianBlur in="SourceAlpha" stdDeviation="10" result="blur"/>
      <feColorMatrix in="blur" type="matrix"
        values="0 0 0 0 0.10
                0 0 0 0 0.85
                0 0 0 0 1
                0 0 0 1.1 0" result="colorBlur"/>
      <feMerge>
        <feMergeNode in="colorBlur"/>
        <feMergeNode in="SourceGraphic"/>
      </feMerge>
    </filter>
    <filter id="amb"><feGaussianBlur stdDeviation="15"/></filter>
  </defs>

  <circle cx="100" cy="100" r="99" fill="url(#ring)"/>
  <circle cx="100" cy="100" r="91" fill="url(#bg)"/>

  <ellipse cx="46" cy="44" rx="34" ry="34" fill="#39E8FF" opacity="0.12" filter="url(#amb)"/>

  <!-- ── DIAMOND SWORD ───────────────────────────── -->
  <!--
    Garde à (120, 118), rotation -45°
    Pointe  → (46, 44)   haut-gauche, hors pig  ✓
    Pommeau → (152, 150) bas-droite, hors pig   ✓
  -->
  <g transform="translate(120,118) rotate(-45)" filter="url(#sglow)">
    <!-- Pointe -->
    <polygon points="0,-105  10,-87 -10,-87" fill="#D8FCFF"/>
    <!-- Lame -->
    <rect x="-7" y="-87" width="14" height="87" fill="#39E8FF"/>
    <rect x="-7" y="-87" width="3"  height="87" fill="#B0F6FF" opacity="0.9"/>
    <rect x="4"  y="-87" width="3"  height="87" fill="#0C88AC" opacity="0.75"/>
    <!-- Garde -->
    <rect x="-22" y="-5" width="44" height="10" fill="#117080"/>
    <rect x="-22" y="-5" width="44" height="4"  fill="#28B8CC" opacity="0.6"/>
    <rect x="-22" y="3"  width="44" height="2"  fill="#041C1C" opacity="0.7"/>
    <!-- Manche -->
    <rect x="-7"  y="5"  width="14" height="28" fill="#9B6820"/>
    <rect x="-7"  y="9"  width="14" height="2"  fill="#5A3A10" opacity="0.8"/>
    <rect x="-7"  y="15" width="14" height="2"  fill="#5A3A10" opacity="0.8"/>
    <rect x="-7"  y="21" width="14" height="2"  fill="#5A3A10" opacity="0.8"/>
    <rect x="-7"  y="27" width="14" height="2"  fill="#5A3A10" opacity="0.8"/>
    <!-- Pommeau -->
    <rect x="-11" y="33" width="22" height="12" fill="#117080"/>
    <rect x="-11" y="33" width="22" height="4"  fill="#28B8CC" opacity="0.45"/>
  </g>

  <!-- Sparkles autour de la pointe (46, 44) -->
  <g fill="#9AEFFF" opacity="0.85" shape-rendering="crispEdges">
    <rect x="38" y="31" width="6" height="6"/>
    <rect x="26" y="47" width="4" height="4"/>
    <rect x="52" y="22" width="4" height="4"/>
    <rect x="20" y="59" width="3" height="3"/>
    <rect x="60" y="37" width="3" height="3"/>
    <rect x="29" y="68" width="3" height="3"/>
    <rect x="13" y="48" width="2" height="2"/>
  </g>

  <!-- ── PIXEL PIG FACE ──────────────────────────── -->
  <rect x="60" y="35" width="80" height="80" fill="#F4A4B8"/>
  <rect x="130" y="35"  width="10" height="80" fill="#D88898"/>
  <rect x="60"  y="105" width="80" height="10" fill="#D88898"/>
  <rect x="70"  y="55" width="10" height="20" fill="#18080A"/>
  <rect x="70"  y="55" width="4"  height="4"  fill="#FFFFFF" opacity="0.4"/>
  <rect x="120" y="55" width="10" height="20" fill="#18080A"/>
  <rect x="120" y="55" width="4"  height="4"  fill="#FFFFFF" opacity="0.4"/>
  <rect x="70"  y="85" width="60" height="20" fill="#E07898"/>
  <rect x="70"  y="85" width="60" height="3"  fill="#F0A0B5" opacity="0.5"/>
  <rect x="80"  y="95" width="10" height="10" fill="#7A1235"/>
  <rect x="110" y="95" width="10" height="10" fill="#7A1235"/>

  <!-- ── QT3 BADGE ──────────────────────────────── -->
  <rect x="63"  y="126" width="74" height="30" fill="#090C18"/>
  <rect x="63"  y="126" width="74" height="3"  fill="url(#ring)"/>
  <rect x="63"  y="153" width="74" height="3"  fill="url(#ring)"/>
  <text x="100" y="148"
    font-family="'Courier New', Courier, monospace"
    font-size="15" font-weight="900"
    fill="#FFFFFF" text-anchor="middle" letter-spacing="5">QT3</text>
  <rect x="84"  y="122" width="5" height="5" fill="#5AA612" opacity="0.7"/>
  <rect x="111" y="122" width="5" height="5" fill="#FF6B9D" opacity="0.7"/>
</svg>
